<svg width="37" height="44" viewBox="0 0 37 44" fill="none" xmlns="http://www.w3.org/2000/svg">
<path d="M19.1516 20.864V20.544C21.6689 20.6293 23.9729 20.8427 26.0636 21.184C28.1969 21.4827 30.0316 22.016 31.5676 22.784C33.1036 23.5093 34.2982 24.5333 35.1516 25.856C36.0049 27.1787 36.4316 28.864 36.4316 30.912C36.4316 33.3013 35.6636 35.4133 34.1276 37.248C32.6342 39.0827 30.5009 40.512 27.7276 41.536C24.9542 42.6027 21.6902 43.136 17.9356 43.136C14.2662 43.136 11.0449 42.56 8.27157 41.408C5.5409 40.2987 3.45023 38.7413 1.99957 36.736C0.548901 34.7733 -0.112433 32.4907 0.0155676 29.888H8.07957C8.12223 31.1253 8.52757 32.192 9.29557 33.088C10.1062 34.0267 11.2369 34.752 12.6876 35.264C14.1809 35.776 15.9302 36.032 17.9356 36.032C21.0502 36.032 23.4396 35.4987 25.1036 34.432C26.7676 33.3653 27.5996 31.7867 27.5996 29.696C27.5996 27.6907 26.6396 26.2827 24.7196 25.472C22.7996 24.6187 20.0902 24.192 16.5916 24.192H11.1516V17.792H16.5916C19.0236 17.792 20.9862 17.6427 22.4796 17.344C24.0156 17.0027 25.1249 16.4693 25.8076 15.744C26.5329 14.976 26.8956 13.9733 26.8956 12.736C26.8956 10.9867 26.1916 9.62134 24.7836 8.64C23.3756 7.616 21.0929 7.104 17.9356 7.104C14.9489 7.104 12.6449 7.63734 11.0236 8.704C9.4449 9.77067 8.6129 11.1787 8.52757 12.928H0.463568C0.335568 10.9227 0.698234 9.13067 1.55157 7.552C2.44757 5.97334 3.70623 4.62934 5.32757 3.52C6.99157 2.368 8.89023 1.49334 11.0236 0.896002C13.1996 0.298667 15.5036 0 17.9356 0C21.6049 0 24.7622 0.469334 27.4076 1.408C30.0529 2.34667 32.0796 3.66933 33.4876 5.376C34.8956 7.08267 35.5996 9.06667 35.5996 11.328C35.5996 13.2053 35.1942 14.7627 34.3836 16C33.5729 17.1947 32.4209 18.1547 30.9276 18.88C29.4342 19.5627 27.6849 20.0533 25.6796 20.352C23.7169 20.6507 21.5409 20.8213 19.1516 20.864Z" fill="#2E4D6E" fill-opacity="1"/>
</svg>