<svg width="36" height="33" viewBox="0 0 36 33" fill="none" xmlns="http://www.w3.org/2000/svg">
<path d="M22.0329 22.912L11.6649 27.776L11.3449 26.176H35.2169V32.576H1.10494V26.176C4.94494 24.4267 8.40094 22.9333 11.4729 21.696C14.5449 20.4587 17.1476 19.3493 19.2809 18.368C21.4143 17.344 23.0356 16.32 24.1449 15.296C25.2969 14.2293 25.8729 13.056 25.8729 11.776C25.8729 10.752 25.5743 9.87733 24.9769 9.152C24.3796 8.384 23.4409 7.78667 22.1609 7.36C20.8809 6.93333 19.2169 6.72 17.1689 6.72C14.4809 6.72 12.3049 7.25333 10.6409 8.32C9.01961 9.344 8.16628 10.752 8.08094 12.544H0.0169412C-0.111059 10.0693 0.486274 7.89333 1.80894 6.016C3.17427 4.13867 5.15827 2.66667 7.76094 1.6C10.3636 0.533333 13.4356 0 16.9769 0C19.5796 0 21.9476 0.256 24.0809 0.768C26.2143 1.23733 28.0489 1.94133 29.5849 2.88C31.1636 3.81867 32.3583 4.94933 33.1689 6.272C34.0223 7.59467 34.4489 9.088 34.4489 10.752C34.4489 12.032 34.2143 13.2053 33.7449 14.272C33.2756 15.296 32.5289 16.2773 31.5049 17.216C30.5236 18.1547 29.2436 19.0933 27.6649 20.032C26.0863 20.928 24.2089 21.888 22.0329 22.912Z" fill="#2E4D6E" fill-opacity="1"/>
</svg>